<svg xmlns="http://www.w3.org/2000/svg" xmlns:xlink="http://www.w3.org/1999/xlink" viewBox="0 0 430 430" width="430" height="430" preserveAspectRatio="xMidYMid meet" style="width: 100%; height: 100%; transform: translate3d(0px, 0px, 0px); content-visibility: visible;"><defs><clipPath id="__lottie_element_10"><rect width="430" height="430" x="0" y="0"/></clipPath><clipPath id="__lottie_element_12"><path d="M0,0 L430,0 L430,430 L0,430z"/></clipPath></defs><g clip-path="url(#__lottie_element_10)"><g clip-path="url(#__lottie_element_12)" transform="matrix(1,0,0,1,0,0)" opacity="1" style="display: block;"><g transform="matrix(0.8999999761581421,0,0,0.8999999761581421,215,215.00001525878906)" opacity="1" style="display: block;"><g opacity="1" transform="matrix(1,0,0,1,-11.5,6.5)"><path stroke-linecap="round" stroke-linejoin="round" fill-opacity="0" class="primary" stroke="rgb(180,180,180)" stroke-opacity="1" stroke-width="14" d=" M-172.93800354003906,-104.93800354003906 C-172.93800354003906,-104.93800354003906 -172.43800354003906,-54.9379997253418 -172.43800354003906,-54.9379997253418 C-172.43800354003906,-54.9379997253418 11.5,-8 11.5,-8 C11.5,-8 194.5,-56 194.5,-56 C194.5,-56 195,-105 195,-105 M195.03399658203125,-105 C195.03399658203125,-105 11,-152.5 11,-152.5 C11,-152.5 -173.03399658203125,-105 -173.03399658203125,-105 C-173.03399658203125,-105 11,-57.5 11,-57.5 C11,-57.5 195.03399658203125,-105 195.03399658203125,-105z"/></g></g><g transform="matrix(0.8999999761581421,0,0,0.8999999761581421,215,215.00001525878906)" opacity="1" style="display: block;"><g opacity="1" transform="matrix(1,0,0,1,-11.5,6.5)"><path stroke-linecap="round" stroke-linejoin="round" fill-opacity="0" class="primary" stroke="rgb(180,180,180)" stroke-opacity="1" stroke-width="14" d=" M170.12399291992188,-48.5 C170.12399291992188,-48.5 12,-9.5 12,-9.5 C12,-9.5 -147.93800354003906,-46.4379997253418 -147.93800354003906,-46.4379997253418 C-147.93800354003906,-46.4379997253418 -147.5189971923828,42.70199966430664 -147.5189971923828,42.70199966430664 C-147.5189971923828,42.70199966430664 -147.05499267578125,141.56199645996094 -147.05499267578125,141.56199645996094 C-147.05499267578125,141.56199645996094 11.90999984741211,189.5 11.90999984741211,189.5 C11.90999984741211,189.5 170.14300537109375,140.5 170.14300537109375,140.5 C170.14300537109375,140.5 170.13299560546875,43.49599838256836 170.13299560546875,43.49599838256836 C170.13299560546875,43.49599838256836 170.12399291992188,-48.5 170.12399291992188,-48.5z M11.75,-10.187999725341797 C11.75,-10.187999725341797 11.824000358581543,65.81900024414062 11.824000358581543,65.81900024414062 C11.824000358581543,65.81900024414062 11.944999694824219,189.18800354003906 11.944999694824219,189.18800354003906"/></g></g><g transform="matrix(0.8999999761581421,0,0,0.8999999761581421,215,215.00001525878906)" opacity="1" style="display: block;"><g opacity="1" transform="matrix(1,0,0,1,0,0)"><path stroke-linecap="round" stroke-linejoin="round" fill-opacity="0" class="secondary" stroke="rgb(79,16,145)" stroke-opacity="1" stroke-width="14" d=" M-87.74199676513672,169.7220001220703 C-87.74199676513672,169.7220001220703 -87.4800033569336,69.53399658203125 -87.4800033569336,69.53399658203125 C-87.4800033569336,69.53399658203125 -87.27400207519531,-22.75 -87.27400207519531,-22.75 C-87.27400207519531,-22.75 -102.13700103759766,-27 -102.13700103759766,-27 C-102.13700103759766,-27 -102,-74 -102,-74 C-102,-74 0,-107.30400085449219 0,-107.30400085449219 M87.58799743652344,169.7220001220703 C87.58799743652344,169.7220001220703 87.24099731445312,63.505001068115234 87.24099731445312,63.505001068115234 C87.24099731445312,63.505001068115234 86.99700164794922,-23.75 86.99700164794922,-23.75 C86.99700164794922,-23.75 101.86299896240234,-28.5 101.86299896240234,-28.5 C101.86299896240234,-28.5 102,-74 102,-74 C102,-74 0,-107.19599914550781 0,-107.19599914550781"/></g></g><g transform="matrix(0.8999999761581421,0,0,0.8999999761581421,214.10000610351562,211.40000915527344)" opacity="1" style="display: block;"><g opacity="1" transform="matrix(1,0,0,1,0,0)"><path stroke-linecap="round" stroke-linejoin="miter" fill-opacity="0" stroke-miterlimit="4" class="secondary" stroke="rgb(79,16,145)" stroke-opacity="1" stroke-width="14" d=" M1.4789999723434448,-105.14399719238281 C-236,-138.01300048828125 -48.645999908447266,-304.00201416015625 3.944000005722046,-102.67900085449219"/></g></g><g transform="matrix(0.8999999761581421,0,0,0.8999999761581421,213.75079345703125,211.40000915527344)" opacity="1" style="display: block;"><g opacity="1" transform="matrix(1,0,0,1,0,0)"><path stroke-linecap="round" stroke-linejoin="miter" fill-opacity="0" stroke-miterlimit="4" class="secondary" stroke="rgb(79,16,145)" stroke-opacity="1" stroke-width="14" d=" M4.415999889373779,-105.14399719238281 C238.94200134277344,-138.01300048828125 53.917999267578125,-304.00201416015625 1.9819999933242798,-102.67900085449219"/></g></g></g></g></svg>